{
  "accessors": [
    {
      "bufferView": 2,
      "componentType": 5126,
      "count": 844,
      "max": [
        0.99918794631958008,
        1,
        1
      ],
      "min": [
        -0.99918794631958008,
        -0.99675554037094116,
        -1
      ],
      "type": "VEC3"
    },
    {
      "bufferView": 2,
      "byteOffset": 10128,
      "componentType": 5126,
      "count": 844,
      "max": [
        0.99918949604034424,
        1,
        1
      ],
      "min": [
        -0.99918949604034424,
        -0.99675875902175903,
        -1
      ],
      "type": "VEC3"
    },
    {
      "bufferView": 1,
      "componentType": 5126,
      "count": 844,
      "max": [
        1.0011516809463501,
        1
      ],
      "min": [
        6.1576618463732302e-05,
        0
      ],
      "type": "VEC2"
    },
    {
      "bufferView": 0,
      "componentType": 5125,
      "count": 4914,
      "max": [
        843
      ],
      "min": [
        0
      ],
      "type": "SCALAR"
    },
    {
      "bufferView": 2,
      "byteOffset": 20256,
      "componentType": 5126,
      "count": 844,
      "max": [
        0.99918794631958008,
        1,
        1
      ],
      "min": [
        -0.99918794631958008,
        -0.99675554037094116,
        -1
      ],
      "type": "VEC3"
    },
    {
      "bufferView": 2,
      "byteOffset": 30384,
      "componentType": 5126,
      "count": 844,
      "max": [
        0.99918949604034424,
        1,
        1
      ],
      "min": [
        -0.99918949604034424,
        -0.99675875902175903,
        -1
      ],
      "type": "VEC3"
    },
    {
      "bufferView": 3,
      "componentType": 5126,
      "count": 844,
      "max": [
        0.99851346015930176,
        0.99989289045333862,
        0.039927560836076736,
        1
      ],
      "min": [
        -1,
        -0.99918955564498901,
        -0.039927445352077484,
        1
      ],
      "type": "VEC4"
    },
    {
      "bufferView": 1,
      "byteOffset": 6752,
      "componentType": 5126,
      "count": 844,
      "max": [
        1.0011516809463501,
        1
      ],
      "min": [
        6.1576618463732302e-05,
        0
      ],
      "type": "VEC2"
    },
    {
      "bufferView": 0,
      "byteOffset": 19656,
      "componentType": 5125,
      "count": 4914,
      "max": [
        843
      ],
      "min": [
        0
      ],
      "type": "SCALAR"
    }
  ],
  "asset": {
    "extras": {
      "author": "Mateusz Woliński (https://sketchfab.com/jeandiz)",
      "license": "CC-BY-4.0 (http://creativecommons.org/licenses/by/4.0/)",
      "source": "https://sketchfab.com/3d-models/coruscant-802db255f49e4e1e8d398213ecc371ae",
      "title": "Coruscant"
    },
    "generator": "Sketchfab-10.29.0",
    "version": "2.0"
  },
  "bufferViews": [
    {
      "buffer": 0,
      "byteLength": 39312,
      "byteOffset": 0,
      "name": "floatBufferViews",
      "target": 34963
    },
    {
      "buffer": 0,
      "byteLength": 13504,
      "byteOffset": 39312,
      "byteStride": 8,
      "name": "floatBufferViews",
      "target": 34962
    },
    {
      "buffer": 0,
      "byteLength": 40512,
      "byteOffset": 52816,
      "byteStride": 12,
      "name": "floatBufferViews",
      "target": 34962
    },
    {
      "buffer": 0,
      "byteLength": 13504,
      "byteOffset": 93328,
      "byteStride": 16,
      "name": "floatBufferViews",
      "target": 34962
    }
  ],
  "buffers": [
    {
      "byteLength": 106832,
      "uri": "scene.bin"
    }
  ],
  "images": [
    {
      "uri": "textures/planet_baseColor.jpeg"
    },
    {
      "uri": "textures/planet_metallicRoughness.png"
    },
    {
      "uri": "textures/planet_emissive.jpeg"
    },
    {
      "uri": "textures/clouds_baseColor.png"
    },
    {
      "uri": "textures/clouds_normal.png"
    }
  ],
  "materials": [
    {
      "doubleSided": false,
      "emissiveFactor": [
        1,
        1,
        1
      ],
      "emissiveTexture": {
        "index": 2,
        "texCoord": 0
      },
      "name": "planet",
      "occlusionTexture": {
        "index": 1,
        "strength": 1,
        "texCoord": 0
      },
      "pbrMetallicRoughness": {
        "baseColorFactor": [
          0.42258892237701728,
          0.42258892237701728,
          0.42258892237701728,
          1
        ],
        "baseColorTexture": {
          "index": 0,
          "texCoord": 0
        },
        "metallicFactor": 1,
        "metallicRoughnessTexture": {
          "index": 1,
          "texCoord": 0
        },
        "roughnessFactor": 1
      }
    },
    {
      "alphaMode": "BLEND",
      "doubleSided": true,
      "emissiveFactor": [
        0.10702556363994636,
        0.10293412551246239,
        0.10293412551246239
      ],
      "name": "clouds",
      "normalTexture": {
        "index": 4,
        "scale": 0.2027631500034642,
        "texCoord": 0
      },
      "pbrMetallicRoughness": {
        "baseColorFactor": [
          1,
          1,
          1,
          0.2969741953064155
        ],
        "baseColorTexture": {
          "index": 3,
          "texCoord": 0
        },
        "metallicFactor": 0,
        "roughnessFactor": 0.95017077607354461
      }
    }
  ],
  "meshes": [
    {
      "name": "planet_planet_0",
      "primitives": [
        {
          "attributes": {
            "NORMAL": 1,
            "POSITION": 0,
            "TEXCOORD_0": 2
          },
          "indices": 3,
          "material": 0,
          "mode": 4
        }
      ]
    },
    {
      "name": "clouds_clouds_0",
      "primitives": [
        {
          "attributes": {
            "NORMAL": 5,
            "POSITION": 4,
            "TANGENT": 6,
            "TEXCOORD_0": 7
          },
          "indices": 8,
          "material": 1,
          "mode": 4
        }
      ]
    }
  ],
  "nodes": [
    {
      "children": [
        1
      ],
      "name": "RootNode (gltf orientation matrix)",
      "rotation": [
        -0.70710678118654746,
        -0,
        -0,
        0.70710678118654757
      ]
    },
    {
      "children": [
        2
      ],
      "name": "RootNode (model correction matrix)"
    },
    {
      "children": [
        3
      ],
      "matrix": [
        1,
        0,
        0,
        0,
        0,
        0,
        1,
        0,
        0,
        -1,
        0,
        0,
        0,
        0,
        0,
        1
      ],
      "name": "665425f846f8446187428b23c966aed6.fbx"
    },
    {
      "children": [
        4,
        6
      ],
      "name": "RootNode"
    },
    {
      "children": [
        5
      ],
      "matrix": [
        100,
        0,
        0,
        0,
        0,
        -1.6292067939183141e-05,
        -99.999999999998678,
        0,
        0,
        99.999999999998678,
        -1.6292067939183141e-05,
        0,
        0,
        0,
        0,
        1
      ],
      "name": "planet"
    },
    {
      "mesh": 0,
      "name": "planet_planet_0"
    },
    {
      "children": [
        7
      ],
      "matrix": [
        101.14337158203125,
        0,
        0,
        0,
        0,
        -1.6478346814124986e-05,
        -101.14337158202991,
        0,
        0,
        101.14337158202991,
        -1.6478346814124986e-05,
        0,
        0,
        0,
        0,
        1
      ],
      "name": "clouds"
    },
    {
      "mesh": 1,
      "name": "clouds_clouds_0"
    }
  ],
  "samplers": [
    {
      "magFilter": 9729,
      "minFilter": 9987,
      "wrapS": 10497,
      "wrapT": 10497
    }
  ],
  "scene": 0,
  "scenes": [
    {
      "name": "OSG_Scene",
      "nodes": [
        0
      ]
    }
  ],
  "textures": [
    {
      "sampler": 0,
      "source": 0
    },
    {
      "sampler": 0,
      "source": 1
    },
    {
      "sampler": 0,
      "source": 2
    },
    {
      "sampler": 0,
      "source": 3
    },
    {
      "sampler": 0,
      "source": 4
    }
  ]
}

