{
  "accessors": [
    {
      "bufferView": 2,
      "componentType": 5126,
      "count": 51,
      "max": [
        0.7865939736366272,
        1.4538270235061646,
        1.5514290332794189
      ],
      "min": [
        -0.78659301996231079,
        -3.8251729011535645,
        1.1399999856948853
      ],
      "type": "VEC3"
    },
    {
      "bufferView": 2,
      "byteOffset": 612,
      "componentType": 5126,
      "count": 51,
      "max": [
        0.74803274869918823,
        0.89873427152633667,
        0.99996960163116455
      ],
      "min": [
        -0.76521992683410645,
        -0.96524524688720703,
        -0.66362905502319336
      ],
      "type": "VEC3"
    },
    {
      "bufferView": 3,
      "componentType": 5126,
      "count": 51,
      "max": [
        0.99999809265136719,
        0.98081415891647339,
        0.94608056545257568,
        1
      ],
      "min": [
        -0.44775626063346863,
        -0.68977391719818115,
        -0.84688830375671387,
        -1
      ],
      "type": "VEC4"
    },
    {
      "bufferView": 1,
      "componentType": 5126,
      "count": 51,
      "max": [
        0.875,
        1
      ],
      "min": [
        0.52499997615814209,
        0.25
      ],
      "type": "VEC2"
    },
    {
      "bufferView": 0,
      "componentType": 5125,
      "count": 147,
      "max": [
        50
      ],
      "min": [
        0
      ],
      "type": "SCALAR"
    },
    {
      "bufferView": 2,
      "byteOffset": 1224,
      "componentType": 5126,
      "count": 8,
      "max": [
        2.6792199611663818,
        1.5042719841003418,
        0.80595701932907104
      ],
      "min": [
        -2.6792209148406982,
        -0.14204800128936768,
        0.23310700058937073
      ],
      "type": "VEC3"
    },
    {
      "bufferView": 2,
      "byteOffset": 1320,
      "componentType": 5126,
      "count": 8,
      "max": [
        0.45589724183082581,
        0.05869964137673378,
        0.88809460401535034
      ],
      "min": [
        0.45589724183082581,
        -0.05869964137673378,
        -0.88809460401535034
      ],
      "type": "VEC3"
    },
    {
      "bufferView": 3,
      "byteOffset": 816,
      "componentType": 5126,
      "count": 8,
      "max": [
        0.88963580131530762,
        0.00026587143656797707,
        0.45669853687286377,
        1
      ],
      "min": [
        0.8896215558052063,
        -0.00026561759295873344,
        -0.45669838786125183,
        -1
      ],
      "type": "VEC4"
    },
    {
      "bufferView": 1,
      "byteOffset": 408,
      "componentType": 5126,
      "count": 8,
      "max": [
        0.87147301435470581,
        1.0128409862518311
      ],
      "min": [
        0.10235399752855301,
        0.045983001589775085
      ],
      "type": "VEC2"
    },
    {
      "bufferView": 0,
      "byteOffset": 588,
      "componentType": 5125,
      "count": 12,
      "max": [
        7
      ],
      "min": [
        0
      ],
      "type": "SCALAR"
    },
    {
      "bufferView": 2,
      "byteOffset": 1416,
      "componentType": 5126,
      "count": 3025,
      "max": [
        5.7237701416015625,
        11.95000171661377,
        1.8191540241241455
      ],
      "min": [
        -5.7237749099731445,
        -8.3524246215820312,
        -0.78787797689437866
      ],
      "type": "VEC3"
    },
    {
      "bufferView": 2,
      "byteOffset": 37716,
      "componentType": 5126,
      "count": 3025,
      "max": [
        1,
        1,
        0.99650776386260986
      ],
      "min": [
        -1,
        -1,
        -0.99879390001296997
      ],
      "type": "VEC3"
    },
    {
      "bufferView": 3,
      "byteOffset": 944,
      "componentType": 5126,
      "count": 3025,
      "max": [
        1,
        1,
        1,
        1
      ],
      "min": [
        -1,
        -1,
        -1,
        -1
      ],
      "type": "VEC4"
    },
    {
      "bufferView": 1,
      "byteOffset": 472,
      "componentType": 5126,
      "count": 3025,
      "max": [
        1,
        1
      ],
      "min": [
        0,
        0
      ],
      "type": "VEC2"
    },
    {
      "bufferView": 0,
      "byteOffset": 636,
      "componentType": 5125,
      "count": 8913,
      "max": [
        3024
      ],
      "min": [
        0
      ],
      "type": "SCALAR"
    },
    {
      "bufferView": 2,
      "byteOffset": 74016,
      "componentType": 5126,
      "count": 800,
      "max": [
        5.3868131637573242,
        11.231326103210449,
        1.9014819860458374
      ],
      "min": [
        -5.3868188858032227,
        -0.15132400393486023,
        -0.93882501125335693
      ],
      "type": "VEC3"
    },
    {
      "bufferView": 2,
      "byteOffset": 83616,
      "componentType": 5126,
      "count": 800,
      "max": [
        0.99144750833511353,
        1,
        1
      ],
      "min": [
        -0.99144750833511353,
        -0.98523521423339844,
        -1
      ],
      "type": "VEC3"
    },
    {
      "bufferView": 3,
      "byteOffset": 49344,
      "componentType": 5126,
      "count": 800,
      "max": [
        0.99783813953399658,
        0.3041185736656189,
        0.99980717897415161,
        1
      ],
      "min": [
        -1,
        -1,
        -1,
        -1
      ],
      "type": "VEC4"
    },
    {
      "bufferView": 1,
      "byteOffset": 24672,
      "componentType": 5126,
      "count": 800,
      "max": [
        1,
        1
      ],
      "min": [
        0,
        0
      ],
      "type": "VEC2"
    },
    {
      "bufferView": 0,
      "byteOffset": 36288,
      "componentType": 5125,
      "count": 2469,
      "max": [
        799
      ],
      "min": [
        0
      ],
      "type": "SCALAR"
    },
    {
      "bufferView": 2,
      "byteOffset": 93216,
      "componentType": 5126,
      "count": 2864,
      "max": [
        5.7237701416015625,
        11.95000171661377,
        1.8488379716873169
      ],
      "min": [
        -5.7237749099731445,
        -8.6247644424438477,
        -1.1750409603118896
      ],
      "type": "VEC3"
    },
    {
      "bufferView": 2,
      "byteOffset": 127584,
      "componentType": 5126,
      "count": 2864,
      "max": [
        1,
        1,
        1
      ],
      "min": [
        -1,
        -1,
        -1
      ],
      "type": "VEC3"
    },
    {
      "bufferView": 3,
      "byteOffset": 62144,
      "componentType": 5126,
      "count": 2864,
      "max": [
        1,
        0.99878847599029541,
        1,
        1
      ],
      "min": [
        -1,
        -0.99999898672103882,
        -1,
        -1
      ],
      "type": "VEC4"
    },
    {
      "bufferView": 1,
      "byteOffset": 31072,
      "componentType": 5126,
      "count": 2864,
      "max": [
        0.99000000953674316,
        0.98580801486968994
      ],
      "min": [
        0.0099999997764825821,
        0.0099999997764825821
      ],
      "type": "VEC2"
    },
    {
      "bufferView": 0,
      "byteOffset": 46164,
      "componentType": 5125,
      "count": 6303,
      "max": [
        2863
      ],
      "min": [
        0
      ],
      "type": "SCALAR"
    },
    {
      "bufferView": 2,
      "byteOffset": 161952,
      "componentType": 5126,
      "count": 2397,
      "max": [
        1.4411690235137939,
        7.0334000587463379,
        1.9353150129318237
      ],
      "min": [
        -1.4411690235137939,
        0.65833199024200439,
        0.77464401721954346
      ],
      "type": "VEC3"
    },
    {
      "bufferView": 2,
      "byteOffset": 190716,
      "componentType": 5126,
      "count": 2397,
      "max": [
        1,
        0.96592891216278076,
        1
      ],
      "min": [
        -1,
        -1,
        -1
      ],
      "type": "VEC3"
    },
    {
      "bufferView": 3,
      "byteOffset": 107968,
      "componentType": 5126,
      "count": 2397,
      "max": [
        1,
        0.99974668025970459,
        1,
        1
      ],
      "min": [
        -1,
        -0.99974668025970459,
        -1,
        -1
      ],
      "type": "VEC4"
    },
    {
      "bufferView": 1,
      "byteOffset": 53984,
      "componentType": 5126,
      "count": 2397,
      "max": [
        1,
        1
      ],
      "min": [
        0,
        0
      ],
      "type": "VEC2"
    },
    {
      "bufferView": 0,
      "byteOffset": 71376,
      "componentType": 5125,
      "count": 5082,
      "max": [
        2396
      ],
      "min": [
        0
      ],
      "type": "SCALAR"
    }
  ],
  "asset": {
    "extras": {
      "author": "MOJackal (https://sketchfab.com/MOJackal)",
      "license": "CC-BY-4.0 (http://creativecommons.org/licenses/by/4.0/)",
      "source": "https://sketchfab.com/3d-models/space-fighter-jet-248f51f168474b27b6020c8cf5e4de42",
      "title": "Space Fighter Jet"
    },
    "generator": "Sketchfab-6.99.1",
    "version": "2.0"
  },
  "bufferViews": [
    {
      "buffer": 0,
      "byteLength": 91704,
      "byteOffset": 0,
      "name": "floatBufferViews",
      "target": 34963
    },
    {
      "buffer": 0,
      "byteLength": 73160,
      "byteOffset": 91704,
      "byteStride": 8,
      "name": "floatBufferViews",
      "target": 34962
    },
    {
      "buffer": 0,
      "byteLength": 219480,
      "byteOffset": 164864,
      "byteStride": 12,
      "name": "floatBufferViews",
      "target": 34962
    },
    {
      "buffer": 0,
      "byteLength": 146320,
      "byteOffset": 384344,
      "byteStride": 16,
      "name": "floatBufferViews",
      "target": 34962
    }
  ],
  "buffers": [
    {
      "byteLength": 530664,
      "uri": "scene.bin"
    }
  ],
  "images": [
    {
      "uri": "textures/hull_baseColor.png"
    },
    {
      "uri": "textures/stars_baseColor.png"
    }
  ],
  "materials": [
    {
      "doubleSided": true,
      "emissiveFactor": [
        0,
        0,
        0
      ],
      "name": "black",
      "pbrMetallicRoughness": {
        "baseColorFactor": [
          0.0020630000000000002,
          0.0020630000000000002,
          0.0020630000000000002,
          1
        ],
        "metallicFactor": 0,
        "roughnessFactor": 1
      }
    },
    {
      "doubleSided": true,
      "emissiveFactor": [
        0,
        0,
        0
      ],
      "name": "material",
      "pbrMetallicRoughness": {
        "baseColorFactor": [
          0.029557,
          0.029557,
          0.029557,
          1
        ],
        "metallicFactor": 0,
        "roughnessFactor": 0.98893318080299675
      }
    },
    {
      "doubleSided": true,
      "emissiveFactor": [
        0,
        0,
        0
      ],
      "name": "material_2",
      "pbrMetallicRoughness": {
        "baseColorFactor": [
          0.0098029999999999957,
          0.029316999999999989,
          0.090838000000000002,
          1
        ],
        "metallicFactor": 0.46224744392163825,
        "roughnessFactor": 0.4561868378610322
      }
    },
    {
      "doubleSided": true,
      "emissiveFactor": [
        0,
        0,
        0
      ],
      "name": "hull",
      "pbrMetallicRoughness": {
        "baseColorFactor": [
          1,
          1,
          1,
          1
        ],
        "baseColorTexture": {
          "index": 0,
          "texCoord": 0
        },
        "metallicFactor": 0,
        "roughnessFactor": 1
      }
    },
    {
      "doubleSided": true,
      "emissiveFactor": [
        0,
        0,
        0
      ],
      "name": "material_4",
      "pbrMetallicRoughness": {
        "baseColorFactor": [
          0.114935,
          0.114935,
          0.114935,
          1
        ],
        "metallicFactor": 0,
        "roughnessFactor": 1
      }
    },
    {
      "doubleSided": true,
      "emissiveFactor": [
        0,
        0,
        0
      ],
      "name": "stars",
      "pbrMetallicRoughness": {
        "baseColorFactor": [
          1,
          1,
          1,
          1
        ],
        "baseColorTexture": {
          "index": 1,
          "texCoord": 0
        },
        "metallicFactor": 0,
        "roughnessFactor": 1
      }
    }
  ],
  "meshes": [
    {
      "primitives": [
        {
          "attributes": {
            "NORMAL": 1,
            "POSITION": 0,
            "TANGENT": 2,
            "TEXCOORD_0": 3
          },
          "indices": 4,
          "material": 2,
          "mode": 4
        }
      ]
    },
    {
      "primitives": [
        {
          "attributes": {
            "NORMAL": 6,
            "POSITION": 5,
            "TANGENT": 7,
            "TEXCOORD_0": 8
          },
          "indices": 9,
          "material": 5,
          "mode": 4
        }
      ]
    },
    {
      "primitives": [
        {
          "attributes": {
            "NORMAL": 11,
            "POSITION": 10,
            "TANGENT": 12,
            "TEXCOORD_0": 13
          },
          "indices": 14,
          "material": 0,
          "mode": 4
        }
      ]
    },
    {
      "primitives": [
        {
          "attributes": {
            "NORMAL": 16,
            "POSITION": 15,
            "TANGENT": 17,
            "TEXCOORD_0": 18
          },
          "indices": 19,
          "material": 1,
          "mode": 4
        }
      ]
    },
    {
      "primitives": [
        {
          "attributes": {
            "NORMAL": 21,
            "POSITION": 20,
            "TANGENT": 22,
            "TEXCOORD_0": 23
          },
          "indices": 24,
          "material": 3,
          "mode": 4
        }
      ]
    },
    {
      "primitives": [
        {
          "attributes": {
            "NORMAL": 26,
            "POSITION": 25,
            "TANGENT": 27,
            "TEXCOORD_0": 28
          },
          "indices": 29,
          "material": 4,
          "mode": 4
        }
      ]
    }
  ],
  "nodes": [
    {
      "children": [
        1
      ],
      "name": "RootNode (gltf orientation matrix)",
      "rotation": [
        -0.70710678118654746,
        -0,
        -0,
        0.70710678118654757
      ]
    },
    {
      "children": [
        2
      ],
      "name": "RootNode (model correction matrix)"
    },
    {
      "children": [
        3,
        4,
        5,
        6,
        7,
        8
      ],
      "name": "Space ship Fighter.obj.cleaner.materialmerger.gles"
    },
    {
      "mesh": 0,
      "name": ""
    },
    {
      "mesh": 1,
      "name": ""
    },
    {
      "mesh": 2,
      "name": ""
    },
    {
      "mesh": 3,
      "name": ""
    },
    {
      "mesh": 4,
      "name": ""
    },
    {
      "mesh": 5,
      "name": ""
    }
  ],
  "samplers": [
    {
      "magFilter": 9729,
      "minFilter": 9987,
      "wrapS": 10497,
      "wrapT": 10497
    }
  ],
  "scene": 0,
  "scenes": [
    {
      "name": "OSG_Scene",
      "nodes": [
        0
      ]
    }
  ],
  "textures": [
    {
      "sampler": 0,
      "source": 0
    },
    {
      "sampler": 0,
      "source": 1
    }
  ]
}

