{
  "accessors": [
    {
      "bufferView": 2,
      "componentType": 5126,
      "count": 124,
      "max": [
        0.45748502016067505,
        -0.6528780460357666,
        0.5317150354385376
      ],
      "min": [
        -0.45748502016067505,
        -1.7300601005554199,
        -0.22615700960159302
      ],
      "type": "VEC3"
    },
    {
      "bufferView": 2,
      "byteOffset": 1488,
      "componentType": 5126,
      "count": 124,
      "max": [
        0.88640207052230835,
        0.12050004303455353,
        0.99558842182159424
      ],
      "min": [
        -0.88640207052230835,
        -1,
        -0.70806729793548584
      ],
      "type": "VEC3"
    },
    {
      "bufferView": 1,
      "componentType": 5126,
      "count": 124,
      "max": [
        0.97327101230621338,
        0.93100792169570923
      ],
      "min": [
        0.023060999810695648,
        0.064179003238677979
      ],
      "type": "VEC2"
    },
    {
      "bufferView": 1,
      "byteOffset": 992,
      "componentType": 5126,
      "count": 124,
      "max": [
        0.97327101230621338,
        0.93100792169570923
      ],
      "min": [
        0.023060999810695648,
        0.064179003238677979
      ],
      "type": "VEC2"
    },
    {
      "bufferView": 1,
      "byteOffset": 1984,
      "componentType": 5126,
      "count": 124,
      "max": [
        0.97327101230621338,
        0.93100792169570923
      ],
      "min": [
        0.023060999810695648,
        0.064179003238677979
      ],
      "type": "VEC2"
    },
    {
      "bufferView": 0,
      "componentType": 5125,
      "count": 324,
      "max": [
        123
      ],
      "min": [
        0
      ],
      "type": "SCALAR"
    },
    {
      "bufferView": 2,
      "byteOffset": 2976,
      "componentType": 5126,
      "count": 8815,
      "max": [
        1.6826701164245605,
        2.4958102703094482,
        0.98255908489227295
      ],
      "min": [
        -1.6826701164245605,
        -5.1574106216430664,
        -0.98255908489227295
      ],
      "type": "VEC3"
    },
    {
      "bufferView": 2,
      "byteOffset": 108756,
      "componentType": 5126,
      "count": 8815,
      "max": [
        1,
        1,
        1
      ],
      "min": [
        -1,
        -1,
        -1
      ],
      "type": "VEC3"
    },
    {
      "bufferView": 1,
      "byteOffset": 2976,
      "componentType": 5126,
      "count": 8815,
      "max": [
        0.99540698528289795,
        0.99537831544876099
      ],
      "min": [
        0.0025483400095254183,
        0.0014169812202453613
      ],
      "type": "VEC2"
    },
    {
      "bufferView": 1,
      "byteOffset": 73496,
      "componentType": 5126,
      "count": 8815,
      "max": [
        0.99540698528289795,
        0.99537831544876099
      ],
      "min": [
        0.0025483400095254183,
        0.0014169812202453613
      ],
      "type": "VEC2"
    },
    {
      "bufferView": 1,
      "byteOffset": 144016,
      "componentType": 5126,
      "count": 8815,
      "max": [
        0.99540698528289795,
        0.99537831544876099
      ],
      "min": [
        0.0025483400095254183,
        0.0014169812202453613
      ],
      "type": "VEC2"
    },
    {
      "bufferView": 0,
      "byteOffset": 1296,
      "componentType": 5125,
      "count": 22257,
      "max": [
        8814
      ],
      "min": [
        0
      ],
      "type": "SCALAR"
    }
  ],
  "asset": {
    "extras": {
      "author": "sksksk (https://sketchfab.com/sksksk)",
      "license": "CC-BY-4.0 (http://creativecommons.org/licenses/by/4.0/)",
      "source": "https://sketchfab.com/3d-models/tie-silencer-3fa34c708abe42e98ed50e55d34d671c",
      "title": "Tie Silencer"
    },
    "generator": "Sketchfab-9.24.0",
    "version": "2.0"
  },
  "bufferViews": [
    {
      "buffer": 0,
      "byteLength": 90324,
      "byteOffset": 0,
      "name": "floatBufferViews",
      "target": 34963
    },
    {
      "buffer": 0,
      "byteLength": 214536,
      "byteOffset": 90324,
      "byteStride": 8,
      "name": "floatBufferViews",
      "target": 34962
    },
    {
      "buffer": 0,
      "byteLength": 214536,
      "byteOffset": 304860,
      "byteStride": 12,
      "name": "floatBufferViews",
      "target": 34962
    }
  ],
  "buffers": [
    {
      "byteLength": 519396,
      "uri": "scene.bin"
    }
  ],
  "images": [
    {
      "uri": "textures/material_0_baseColor.png"
    },
    {
      "uri": "textures/material_0_metallicRoughness.png"
    },
    {
      "uri": "textures/material_1_baseColor.png"
    },
    {
      "uri": "textures/material_1_metallicRoughness.png"
    }
  ],
  "materials": [
    {
      "doubleSided": false,
      "emissiveFactor": [
        0,
        0,
        0
      ],
      "name": "material_0",
      "pbrMetallicRoughness": {
        "baseColorFactor": [
          1,
          1,
          1,
          1
        ],
        "baseColorTexture": {
          "index": 0,
          "texCoord": 0
        },
        "metallicFactor": 1,
        "metallicRoughnessTexture": {
          "index": 1,
          "texCoord": 0
        },
        "roughnessFactor": 1
      }
    },
    {
      "doubleSided": false,
      "emissiveFactor": [
        0,
        0,
        0
      ],
      "name": "material_1",
      "pbrMetallicRoughness": {
        "baseColorFactor": [
          1,
          1,
          1,
          1
        ],
        "baseColorTexture": {
          "index": 2,
          "texCoord": 0
        },
        "metallicFactor": 1,
        "metallicRoughnessTexture": {
          "index": 3,
          "texCoord": 0
        },
        "roughnessFactor": 1
      }
    }
  ],
  "meshes": [
    {
      "primitives": [
        {
          "attributes": {
            "NORMAL": 1,
            "POSITION": 0,
            "TEXCOORD_0": 2,
            "TEXCOORD_1": 3,
            "TEXCOORD_2": 4
          },
          "indices": 5,
          "material": 0,
          "mode": 4
        }
      ]
    },
    {
      "primitives": [
        {
          "attributes": {
            "NORMAL": 7,
            "POSITION": 6,
            "TEXCOORD_0": 8,
            "TEXCOORD_1": 9,
            "TEXCOORD_2": 10
          },
          "indices": 11,
          "material": 1,
          "mode": 4
        }
      ]
    }
  ],
  "nodes": [
    {
      "children": [
        1
      ],
      "name": "RootNode (gltf orientation matrix)",
      "rotation": [
        -0.70710678118654746,
        -0,
        -0,
        0.70710678118654757
      ]
    },
    {
      "children": [
        2
      ],
      "matrix": [
        0.61915761232376099,
        0,
        0,
        0,
        0,
        0.61915761232376099,
        0,
        0,
        0,
        0,
        0.61915761232376099,
        0,
        0,
        0,
        0,
        1
      ],
      "name": "RootNode (model correction matrix)"
    },
    {
      "children": [
        3
      ],
      "name": "root"
    },
    {
      "children": [
        4,
        6
      ],
      "matrix": [
        1,
        0,
        0,
        0,
        0,
        2.2204460492503131e-16,
        1,
        0,
        0,
        -1,
        2.2204460492503131e-16,
        0,
        0,
        0,
        0,
        1
      ],
      "name": "GLTF_SceneRootNode"
    },
    {
      "children": [
        5
      ],
      "matrix": [
        1.1019099950790405,
        0,
        0,
        0,
        0,
        -1.1920928244535389e-07,
        -0.99999982118606567,
        0,
        0,
        0.99999982118606567,
        -1.1920928244535389e-07,
        0,
        0.17148199677467346,
        0.9825587272644043,
        -1.3308000564575195,
        1
      ],
      "name": "_0"
    },
    {
      "mesh": 0,
      "name": ""
    },
    {
      "children": [
        7
      ],
      "matrix": [
        1.1019099950790405,
        0,
        0,
        0,
        0,
        -1.1920928244535389e-07,
        -0.99999982118606567,
        0,
        0,
        0.99999982118606567,
        -1.1920928244535389e-07,
        0,
        0.17148199677467346,
        0.98255670070648193,
        -1.3308000564575195,
        1
      ],
      "name": "_1"
    },
    {
      "mesh": 1,
      "name": ""
    }
  ],
  "samplers": [
    {
      "magFilter": 9729,
      "minFilter": 9987,
      "wrapS": 10497,
      "wrapT": 10497
    }
  ],
  "scene": 0,
  "scenes": [
    {
      "name": "OSG_Scene",
      "nodes": [
        0
      ]
    }
  ],
  "textures": [
    {
      "sampler": 0,
      "source": 0
    },
    {
      "sampler": 0,
      "source": 1
    },
    {
      "sampler": 0,
      "source": 2
    },
    {
      "sampler": 0,
      "source": 3
    }
  ]
}

